<?xml version="1.0" encoding="utf-8"?>
<!-- Generator: Adobe Illustrator 22.1.0, SVG Export Plug-In . SVG Version: 6.00 Build 0)  -->
<svg version="1.1" id="Layer_1" xmlns="http://www.w3.org/2000/svg" xmlns:xlink="http://www.w3.org/1999/xlink" x="0px" y="0px"
	 viewBox="0 0 15.7 16.3" style="enable-background:new 0 0 15.7 16.3;" xml:space="preserve">
<style type="text/css">
	.st0{fill:#363636;}
</style>
<g>
	<path class="st0" d="M9.7,8.5C9.6,8.3,9.6,8.2,9.7,8l4.8-4.8c0.1-0.1,0.2-0.3,0.2-0.4s-0.1-0.3-0.2-0.4l-0.9-0.9
		c-0.1-0.1-0.3-0.2-0.4-0.2c-0.2,0-0.3,0.1-0.4,0.2L8,6.3c-0.1,0.1-0.3,0.1-0.4,0L2.8,1.5C2.6,1.4,2.5,1.3,2.3,1.3
		C2.2,1.3,2,1.4,1.9,1.5L1,2.4C0.9,2.5,0.8,2.7,0.8,2.8S0.9,3.2,1,3.3L5.8,8c0.1,0.1,0.1,0.3,0,0.4L1,13.2c-0.1,0.1-0.2,0.3-0.2,0.4
		S0.9,14,1,14.1L1.9,15c0.1,0.1,0.3,0.2,0.4,0.2s0.3-0.1,0.4-0.2l4.8-4.8c0.1-0.1,0.3-0.1,0.4,0l4.8,4.8c0.1,0.1,0.3,0.2,0.4,0.2
		c0.1,0,0.3-0.1,0.4-0.2l0.9-0.9c0.1-0.1,0.2-0.3,0.2-0.4s-0.1-0.3-0.2-0.4L9.7,8.5z"/>
</g>
</svg>
