<?xml version="1.0" encoding="utf-8"?>
<!-- Generator: Adobe Illustrator 21.1.0, SVG Export Plug-In . SVG Version: 6.00 Build 0)  -->
<svg version="1.1" id="Capa_1" xmlns="http://www.w3.org/2000/svg" xmlns:xlink="http://www.w3.org/1999/xlink" x="0px" y="0px"
	 viewBox="0 0 438.5 438.5" style="enable-background:new 0 0 438.5 438.5;" xml:space="preserve">
<style type="text/css">
	.st0{fill:#D3D3D3;}
	.st1{fill:#FFFFFF;}
</style>
<rect x="120.1" y="64" class="st0" width="236.5" height="312.5"/>
<g>
	<path class="st1" d="M0,219.3c0,39.8,9.8,76.5,29.4,110.1s46.2,60.2,79.8,79.8s70.3,29.4,110.1,29.4s76.5-9.8,110.1-29.4
		s60.2-46.2,79.8-79.8s29.4-70.3,29.4-110.1s-9.8-76.5-29.4-110.1S363,49,329.4,29.4C295.7,9.8,259,0,219.3,0
		c-39.8,0-76.5,9.8-110.1,29.4S49,75.6,29.4,109.2S0,179.5,0,219.3z M237.5,219.3l-87.6-87.7c-3.6-3.6-5.4-7.9-5.4-12.8
		s1.8-9.2,5.4-12.8L179,76.8c3.6-3.6,7.9-5.4,12.8-5.4c5,0,9.2,1.8,12.9,5.4l129.6,129.6c3.6,3.6,5.4,7.9,5.4,12.8
		c0,4.9-1.8,9.2-5.4,12.8L204.7,361.7c-3.6,3.6-7.9,5.4-12.9,5.4c-4.9,0-9.2-1.8-12.8-5.4l-29.1-29.1c-3.6-3.6-5.4-7.9-5.4-12.8
		s1.8-9.2,5.4-12.8L237.5,219.3z"/>
</g>
</svg>
