<?xml version="1.0" encoding="UTF-8"?>
<svg width="16px" height="13px" viewBox="0 0 16 13" version="1.1" xmlns="http://www.w3.org/2000/svg" xmlns:xlink="http://www.w3.org/1999/xlink">
    <!-- Generator: Sketch 57 (83077) - https://sketch.com -->
    <title>Shape</title>
    <desc>Created with Sketch.</desc>
    <g id="Page-1" stroke="none" stroke-width="1" fill="none" fill-rule="evenodd">
        <g id="Location-Page" transform="translate(-135.000000, -4272.000000)" fill="#ED174B" fill-rule="nonzero">
            <g id="Group-24" transform="translate(135.000000, 4069.000000)">
                <g id="Group-22-Copy" transform="translate(0.000000, 72.000000)">
                    <g id="Group-20" transform="translate(0.000000, 91.000000)">
                        <g id="email" transform="translate(0.000000, 40.000000)">
                            <path d="M14.4,3.25 L8,7.3125 L1.6,3.25 L1.6,1.625 L8,5.6875 L14.4,1.625 L14.4,3.25 Z M14.4,0 L1.6,0 C0.712,0 0,0.723125 0,1.625 L0,11.375 C0,12.2724627 0.7163444,13 1.6,13 L14.4,13 C15.2836556,13 16,12.2724627 16,11.375 L16,1.625 C16,0.723125 15.28,0 14.4,0 Z" id="Shape"></path>
                        </g>
                    </g>
                </g>
            </g>
        </g>
    </g>
</svg>