<?xml version="1.0" encoding="UTF-8"?>
<svg width="15px" height="15px" viewBox="0 0 15 15" version="1.1" xmlns="http://www.w3.org/2000/svg" xmlns:xlink="http://www.w3.org/1999/xlink">
    <!-- Generator: Sketch 57 (83077) - https://sketch.com -->
    <title>pinterest</title>
    <desc>Created with Sketch.</desc>
    <g id="Page-1" stroke="none" stroke-width="1" fill="none" fill-rule="evenodd">
        <g id="Location-Page" transform="translate(-1207.000000, -72.000000)" fill="#000000" fill-rule="nonzero">
            <g id="Group-18" transform="translate(0.000000, 35.000000)">
                <g id="Group-10" transform="translate(1151.000000, 37.000000)">
                    <g id="pinterest" transform="translate(56.000000, 0.000000)">
                        <path d="M5.28,14.655 C6,14.8725 6.7275,15 7.5,15 C11.6421356,15 15,11.6421356 15,7.5 C15,5.51087633 14.2098237,3.60322198 12.8033009,2.19669914 C11.396778,0.790176303 9.48912367,0 7.5,0 C3.35786438,0 0,3.35786438 0,7.5 C0,10.6875 2.0025,13.425 4.83,14.505 C4.7625,13.92 4.695,12.9525 4.83,12.285 L5.6925,8.58 C5.6925,8.58 5.475,8.145 5.475,7.455 C5.475,6.42 6.12,5.6475 6.855,5.6475 C7.5,5.6475 7.8,6.12 7.8,6.7275 C7.8,7.3725 7.3725,8.295 7.155,9.18 C7.0275,9.915 7.545,10.56 8.295,10.56 C9.63,10.56 10.665,9.135 10.665,7.125 C10.665,5.325 9.375,4.095 7.5225,4.095 C5.4075,4.095 4.1625,5.67 4.1625,7.3275 C4.1625,7.9725 4.3725,8.625 4.7175,9.0525 C4.785,9.0975 4.785,9.1575 4.7625,9.27 L4.545,10.0875 C4.545,10.215 4.4625,10.26 4.335,10.17 C3.375,9.75 2.82,8.385 2.82,7.2825 C2.82,4.9125 4.5,2.76 7.74,2.76 C10.32,2.76 12.33,4.6125 12.33,7.0725 C12.33,9.6525 10.7325,11.7225 8.445,11.7225 C7.7175,11.7225 7.005,11.3325 6.75,10.875 L6.2475,12.6525 C6.075,13.2975 5.6025,14.16 5.28,14.6775 L5.28,14.655 Z" id="Path"></path>
                    </g>
                </g>
            </g>
        </g>
    </g>
</svg>