<?xml version="1.0" encoding="UTF-8"?>
<svg width="64px" height="64px" viewBox="0 0 64 64" version="1.1" xmlns="http://www.w3.org/2000/svg" xmlns:xlink="http://www.w3.org/1999/xlink">
    <!-- Generator: Sketch 57 (83077) - https://sketch.com -->
    <title>icon</title>
    <desc>Created with Sketch.</desc>
    <g id="Page-1" stroke="none" stroke-width="1" fill="none" fill-rule="evenodd">
        <g id="Detailed-Page" transform="translate(-688.000000, -2943.000000)" fill="#363636" fill-rule="nonzero">
            <g id="360" transform="translate(135.000000, 2586.000000)">
                <g id="icon" transform="translate(553.000000, 357.000000)">
                    <path d="M42.3153346,30.7389623 L28.6223033,21.2997112 C28.1197866,20.9542713 27.4526902,20.9022472 26.9018968,21.1706915 C26.3467146,21.4370548 26,21.9781054 26,22.5628562 L26,41.4351153 C26,42.026109 26.3467146,42.5650786 26.9018968,42.8314419 C27.1366972,42.943814 27.3934415,43 27.6523802,43 C27.9903172,43 28.332643,42.8980328 28.6223033,42.6961793 L42.3153346,33.2652521 C42.7476306,32.9635124 43,32.4973765 43,32.0021072 C43.0021806,31.498514 42.7432418,31.0344591 42.3153346,30.7389623 Z" id="Path"></path>
                    <path d="M32.0010649,0 C14.3244484,0 0,14.3263554 0,32.005325 C0,49.6779046 14.3244484,64 32.0010649,64 C49.6734218,64 64,49.6757746 64,32.005325 C64.0021297,14.3263554 49.6734218,0 32.0010649,0 Z M32.0010649,58.6600992 C17.2804898,58.6600992 5.34557918,46.7299897 5.34557918,32.005325 C5.34557918,17.2870503 17.2804898,5.34203082 32.0010649,5.34203082 C46.7195102,5.34203082 58.6522911,17.2849203 58.6522911,32.005325 C58.6544208,46.7299897 46.7195102,58.6600992 32.0010649,58.6600992 Z" id="Shape"></path>
                </g>
            </g>
        </g>
    </g>
</svg>