<?xml version="1.0" encoding="UTF-8"?>
<svg width="16px" height="13px" viewBox="0 0 16 13" version="1.1" xmlns="http://www.w3.org/2000/svg" xmlns:xlink="http://www.w3.org/1999/xlink">
    <!-- Generator: Sketch 57 (83077) - https://sketch.com -->
    <title>twitter</title>
    <desc>Created with Sketch.</desc>
    <g id="Page-1" stroke="none" stroke-width="1" fill="none" fill-rule="evenodd">
        <g id="Location-Page" transform="translate(-1175.000000, -73.000000)" fill="#000000" fill-rule="nonzero">
            <g id="Group-18" transform="translate(0.000000, 35.000000)">
                <g id="Group-10" transform="translate(1151.000000, 37.000000)">
                    <g id="twitter" transform="translate(24.000000, 1.000000)">
                        <path d="M16,1.52941176 C15.4110899,1.79705882 14.7762906,1.97294118 14.1185468,2.05705882 C14.791587,1.65176471 15.3116635,1.00941176 15.5564054,0.237058824 C14.9216061,0.619411765 14.2179732,0.887058824 13.4760994,1.04 C12.8718929,0.382352941 12.0229446,0 11.0592734,0 C9.26195029,0 7.79349904,1.46823529 7.79349904,3.28058824 C7.79349904,3.54058824 7.82409178,3.79294118 7.87762906,4.03 C5.15487572,3.89235294 2.73040153,2.58470588 1.1166348,0.604117647 C0.833652008,1.08588235 0.673040153,1.65176471 0.673040153,2.24823529 C0.673040153,3.38764706 1.24665392,4.39705882 2.13384321,4.97058824 C1.59082218,4.97058824 1.08604207,4.81764706 0.642447419,4.58823529 C0.642447419,4.58823529 0.642447419,4.58823529 0.642447419,4.61117647 C0.642447419,6.20176471 1.77437859,7.53235294 3.27342256,7.83058824 C2.99808795,7.90705882 2.70745698,7.94529412 2.40917782,7.94529412 C2.20267686,7.94529412 1.99617591,7.92235294 1.79732314,7.88411765 C2.21032505,9.17647059 3.41108987,10.14 4.85659656,10.1629412 C3.73996176,11.05 2.3250478,11.57 0.780114723,11.57 C0.520076482,11.57 0.260038241,11.5547059 0,11.5241176 C1.45315488,12.4570588 3.18164436,13 5.03250478,13 C11.0592734,13 14.3709369,7.99882353 14.3709369,3.66294118 C14.3709369,3.51764706 14.3709369,3.38 14.3632887,3.23470588 C15.0057361,2.77588235 15.5564054,2.19470588 16,1.52941176 Z" id="Path"></path>
                    </g>
                </g>
            </g>
        </g>
    </g>
</svg>